<svg data-v-423bf9ae="" xmlns="http://www.w3.org/2000/svg" viewBox="0 0 163.84793769583987 60" class="font"><!----><!----><!----><g data-v-423bf9ae="" id="7be7dfa1-26fa-4b38-8726-9ac5db10e414" fill="black" transform="matrix(4.654771360825987,0,0,4.654771360825987,-2.606672923188327,-11.869666032893733)"><path d="M4.12 8.62L4.12 8.62L4.12 8.62Q4.10 8.62 3.46 8.88L3.46 8.88L3.46 8.88Q2.81 9.14 2.32 9.32L2.32 9.32L2.32 9.32Q2.73 9.44 3.54 9.90L3.54 9.90L3.54 9.90Q4.34 10.36 4.84 10.44L4.84 10.44L4.84 10.44Q5.43 10.53 4.93 11.44L4.93 11.44L4.93 11.44Q4.65 11.93 4.40 11.96L4.40 11.96L4.40 11.96Q4.14 12.00 3.78 11.79L3.78 11.79L3.78 11.79Q3.42 11.58 2.88 11.20L2.88 11.20L2.88 11.20Q2.35 10.82 2.13 10.69L2.13 10.69L2.13 10.69Q1.90 10.56 1.51 10.40L1.51 10.40L1.51 10.40Q0.59 10.04 0.56 9.88L0.56 9.88L0.56 9.88Q0.56 9.73 0.91 9.10L0.91 9.10L0.91 9.10Q1.02 8.89 1.17 8.83L1.17 8.83L1.17 8.83Q1.32 8.76 1.88 8.53L1.88 8.53L1.88 8.53Q3.36 7.87 3.99 7.53L3.99 7.53L3.99 7.53Q4.07 7.17 4.27 7.15L4.27 7.15L4.27 7.15Q4.42 7.13 4.64 7.34L4.64 7.34L4.64 7.34Q4.86 7.55 4.87 7.80L4.87 7.80L4.87 7.80Q4.96 8.34 4.12 8.62ZM8.83 9.52L10.14 9.55L10.14 9.55Q10.82 6.45 10.82 4.90L10.82 4.90L10.82 4.54L10.82 4.54Q10.82 4.30 10.94 4.18L10.94 4.18L10.94 4.18Q11.06 4.06 11.19 4.04L11.19 4.04L11.19 4.04Q11.33 4.02 11.73 4.02L11.73 4.02L11.73 4.02Q12.12 4.02 12.57 4.31L12.57 4.31L12.57 4.31Q13.01 4.61 13.01 5.11L13.01 5.11L13.01 5.11Q13.01 5.21 12.88 6.33L12.88 6.33L12.88 6.33Q12.75 7.45 12.71 9.20L12.71 9.20L12.71 9.20Q13.19 9.00 13.48 8.79L13.48 8.79L13.48 8.79Q13.76 8.57 13.86 8.57L13.86 8.57L13.86 8.57Q14.01 8.57 14.01 8.86L14.01 8.86L14.01 8.86Q14.01 9.14 13.58 9.58L13.58 9.58L13.58 9.58Q13.15 10.02 12.71 10.30L12.71 10.30L12.71 10.30Q12.71 10.61 12.74 11.28L12.74 11.28L12.74 11.28Q12.78 11.26 12.86 11.26L12.86 11.26L12.86 11.26Q12.94 11.26 13.01 11.30L13.01 11.30L13.01 11.30Q13.09 11.34 13.15 11.40L13.15 11.40L13.15 11.40Q13.22 11.45 13.30 11.56L13.30 11.56L13.30 11.56Q13.38 11.66 13.43 11.72L13.43 11.72L13.43 11.72Q13.47 11.77 13.54 11.88L13.54 11.88L13.54 11.88Q13.61 11.98 13.62 12.00L13.62 12.00L13.62 12.00Q13.87 12.38 13.87 12.59L13.87 12.59L13.87 12.59Q13.87 12.81 13.79 13.09L13.79 13.09L13.79 13.09Q13.47 13.92 13.36 14.53L13.36 14.53L13.36 14.53Q13.30 14.83 13.02 14.83L13.02 14.83L13.02 14.83Q12.71 14.83 12.59 14.66L12.59 14.66L12.59 14.66Q12.47 14.50 12.41 14.41L12.41 14.41L12.41 14.41Q12.35 14.31 12.30 14.13L12.30 14.13L12.30 14.13Q12.25 13.94 12.22 13.84L12.22 13.84L12.22 13.84Q12.19 13.73 12.17 13.51L12.17 13.51L12.17 13.51Q12.12 13.22 12.11 12.92L12.11 12.92L12.10 12.70L12.10 12.70Q12.04 12.03 11.96 10.65L11.96 10.65L11.96 10.65Q11.59 10.78 10.84 10.81L10.84 10.81L10.84 10.81Q10.61 11.82 10.38 12.66L10.38 12.66L10.38 12.66Q10.15 13.51 9.63 14.01L9.63 14.01L9.63 14.01Q9.10 14.52 8.34 14.52L8.34 14.52L8.34 14.52Q8.12 14.52 7.81 14.45L7.81 14.45L7.81 14.45Q6.01 13.96 5.35 12.17L5.35 12.17L5.35 12.17Q5.18 11.70 5.18 11.35L5.18 11.35L5.18 11.35Q5.18 10.51 5.88 10.21L5.88 10.21L5.88 10.21Q7.39 9.52 8.83 9.52L8.83 9.52ZM11.90 9.41L11.90 9.41L11.90 9.41Q11.84 8.18 11.79 5.66L11.79 5.66L11.79 5.66Q11.68 6.30 11.45 7.59L11.45 7.59L11.45 7.59Q11.21 8.88 11.10 9.52L11.10 9.52L11.10 9.52Q11.63 9.46 11.90 9.41ZM9.81 10.82L9.81 10.82L8.92 10.82L8.92 10.82Q7.21 10.82 6.19 11.06L6.19 11.06L6.19 11.06Q5.61 11.17 5.61 11.48L5.61 11.48L5.61 11.48Q5.61 11.72 5.99 12.10L5.99 12.10L5.99 12.10Q6.37 12.47 6.97 12.68L6.97 12.68L6.97 12.68Q7.57 12.88 7.98 12.88L7.98 12.88L7.98 12.88Q8.39 12.88 8.66 12.74L8.66 12.74L8.66 12.74Q8.93 12.60 9.09 12.45L9.09 12.45L9.09 12.45Q9.25 12.29 9.41 11.94L9.41 11.94L9.41 11.94Q9.60 11.51 9.81 10.82ZM14.59 5.70L14.59 5.70L14.59 5.70Q14.28 5.84 14.20 5.84L14.20 5.84L14.20 5.84Q14.11 5.84 14.06 5.80L14.06 5.80L14.06 5.80Q14 5.77 13.97 5.68L13.97 5.68L13.97 5.68Q13.94 5.60 13.92 5.52L13.92 5.52L13.92 5.52Q13.90 5.45 13.89 5.33L13.89 5.33L13.89 5.33Q13.89 5.21 13.89 5.14L13.89 5.14L13.89 4.76L13.89 4.76Q13.89 4.41 14.03 4.41L14.03 4.41L14.03 4.41Q14.06 4.41 14.11 4.44L14.11 4.44L14.11 4.44Q15.41 3.91 16.83 3.91L16.83 3.91L16.83 3.91Q18.79 3.91 19.53 5.14L19.53 5.14L19.53 5.14Q19.95 5.85 19.95 6.50L19.95 6.50L19.95 6.50Q19.95 7.14 19.36 7.78L19.36 7.78L19.36 7.78Q18.76 8.41 17.65 9.18L17.65 9.18L17.65 9.18Q19.99 9.90 20.41 11.47L20.41 11.47L20.41 11.47Q20.50 11.73 20.50 12.03L20.50 12.03L20.50 12.03Q20.50 13.68 17.51 14.28L17.51 14.28L17.51 14.28Q16.95 14.41 16.60 14.41L16.60 14.41L16.60 14.41Q16.25 14.41 15.99 14.24L15.99 14.24L15.99 14.24Q15.72 14.08 15.72 13.82L15.72 13.82L15.72 13.82Q15.72 13.57 15.89 13.23L15.89 13.23L15.89 13.23Q15.85 12.77 15.85 12.07L15.85 12.07L15.85 12.07Q15.85 11.38 16.02 10.16L16.02 10.16L16.02 10.16Q15.88 10.15 15.79 10.05L15.79 10.05L15.79 10.05Q15.69 9.95 15.69 9.81L15.69 9.81L15.69 9.81Q15.69 9.66 15.74 9.39L15.74 9.39L15.74 9.39Q15.79 9.13 15.81 9.03L15.81 9.03L15.81 9.03Q15.88 8.50 16.23 8.26L16.23 8.26L16.23 8.26Q16.41 5.91 16.45 5.45L16.45 5.45L16.45 5.45Q15.81 5.45 15.35 5.50L15.35 5.50L15.35 5.50Q14.90 5.56 14.59 5.70ZM18.69 6.10L18.69 6.10L18.69 6.10Q18.69 5.91 18.21 5.68L18.21 5.68L18.21 5.68Q17.72 5.45 16.63 5.45L16.63 5.45L16.63 5.45Q17.07 5.68 17.07 6.26L17.07 6.26L17.07 6.37L17.07 6.37Q17.00 6.90 17.00 7.25L17.00 7.25L17.00 7.25Q17.00 7.59 17.01 7.71L17.01 7.71L17.01 7.71Q18.69 6.44 18.69 6.10ZM19.19 12.28L19.19 12.28L19.19 12.28Q19.49 12.11 19.49 11.87L19.49 11.87L19.49 11.87Q19.49 11.62 19.28 11.35L19.28 11.35L19.28 11.35Q18.70 10.63 17.26 10.19L17.26 10.19L17.26 10.19Q17.09 10.14 17.00 10.14L17.00 10.14L17.00 10.14Q16.91 10.14 16.83 10.18L16.83 10.18L16.83 10.18Q16.59 11.52 16.58 12.32L16.58 12.32L16.58 12.32Q16.69 12.03 17.02 11.77L17.02 11.77L17.02 11.77Q17.35 11.52 17.56 11.52L17.56 11.52L17.56 11.52Q17.77 11.52 17.77 11.59L17.77 11.59L17.77 11.59Q17.77 11.69 17.45 11.79L17.45 11.79L17.45 11.79Q17.14 11.90 16.95 12.10L16.95 12.10L16.95 12.10Q16.76 12.31 16.76 12.71L16.76 12.71L16.76 12.71Q16.76 13.10 17.14 13.10L17.14 13.10L17.14 13.10Q17.84 13.10 19.19 12.28ZM24.53 15.11L24.51 15.29L24.51 15.29Q24.51 15.44 24.36 15.44L24.36 15.44L24.36 15.44Q24.01 15.44 23.77 14.79L23.77 14.79L23.77 14.79Q23.53 14.14 23.53 13.94L23.53 13.94L23.53 13.94Q23.53 13.75 23.65 13.48L23.65 13.48L23.65 13.48Q24.08 12.29 24.93 10.71L24.93 10.71L24.93 10.71Q25.77 9.13 26.42 8.08L26.42 8.08L26.42 8.08Q27.06 7.03 28.27 5.14L28.27 5.14L28.27 5.14Q29.48 3.25 29.69 2.90L29.69 2.90L29.69 2.90Q29.90 2.55 30.00 2.55L30.00 2.55L30.00 2.55Q30.18 2.55 30.35 3.12L30.35 3.12L30.35 3.12Q30.45 3.39 30.45 3.51L30.45 3.51L30.45 3.51Q30.45 4.02 29.64 5.32L29.64 5.32L29.64 5.32Q28.84 6.62 28.09 7.74L28.09 7.74L28.09 7.74Q27.34 8.86 26.59 10.07L26.59 10.07L26.59 10.07Q25.84 11.28 25.27 12.62L25.27 12.62L25.27 12.62Q24.70 13.96 24.53 15.11L24.53 15.11ZM31.92 10.14L31.92 10.14L31.92 10.14Q31.96 10.12 32.73 9.85L32.73 9.85L32.73 9.85Q33.50 9.58 33.99 9.41L33.99 9.41L33.99 9.41Q33.49 9.28 32.77 8.84L32.77 8.84L32.77 8.84Q32.05 8.40 31.70 8.26L31.70 8.26L31.70 8.26Q31.36 8.12 31.34 7.93L31.34 7.93L31.34 7.93Q31.32 7.74 31.49 7.47L31.49 7.47L31.49 7.47Q31.65 7.20 31.91 7.16L31.91 7.16L31.91 7.16Q32.17 7.13 32.54 7.34L32.54 7.34L32.54 7.34Q32.90 7.55 33.43 7.92L33.43 7.92L33.43 7.92Q33.96 8.30 34.19 8.43L34.19 8.43L34.19 8.43Q34.41 8.57 34.80 8.72L34.80 8.72L34.80 8.72Q35.73 9.09 35.76 9.24L35.76 9.24L35.76 9.24Q35.76 9.39 35.41 10.02L35.41 10.02L35.41 10.02Q35.29 10.23 35.17 10.29L35.17 10.29L35.17 10.29Q35.04 10.35 33.81 10.84L33.81 10.84L33.81 10.84Q32.58 11.34 32.05 11.62L32.05 11.62L32.05 11.62Q31.96 11.98 31.77 12.00L31.77 12.00L31.77 12.00Q31.67 12.01 31.53 11.83L31.53 11.83L31.53 11.83Q31.19 11.40 31.16 10.96L31.16 10.96L31.16 10.96Q31.08 10.42 31.92 10.14Z"></path></g><!----><!----></svg>